<mxfile host="app.diagrams.net" modified="2023-03-27T11:59:35.803Z" agent="Mozilla/5.0 (Windows NT 10.0; Win64; x64) AppleWebKit/537.36 (KHTML, like Gecko) Chrome/111.0.0.0 Safari/537.36" version="21.1.1" etag="8XVuJ0wROw6bH5W5eXX2" type="github">
  <diagram name="第 1 页" id="6CQezu1sQ1fxlcyQVYf-">
    <mxGraphModel>
      <root>
        <mxCell id="0" />
        <mxCell id="1" parent="0" />
      </root>
    </mxGraphModel>
  </diagram>
</mxfile>
